<svg width="13" height="14" viewBox="0 0 13 14" fill="none" xmlns="http://www.w3.org/2000/svg">
<g clip-path="url(#clip0_332_16284)">
<path d="M3.79167 0.5H2.16667C1.59203 0.5 1.04093 0.728273 0.634602 1.1346C0.228273 1.54093 0 2.09203 0 2.66667L0 4.29167C0 4.8663 0.228273 5.4174 0.634602 5.82373C1.04093 6.23006 1.59203 6.45833 2.16667 6.45833H3.79167C4.3663 6.45833 4.9174 6.23006 5.32373 5.82373C5.73006 5.4174 5.95833 4.8663 5.95833 4.29167V2.66667C5.95833 2.09203 5.73006 1.54093 5.32373 1.1346C4.9174 0.728273 4.3663 0.5 3.79167 0.5ZM4.875 4.29167C4.875 4.57898 4.76086 4.85453 4.5577 5.0577C4.35453 5.26086 4.07898 5.375 3.79167 5.375H2.16667C1.87935 5.375 1.6038 5.26086 1.40063 5.0577C1.19747 4.85453 1.08333 4.57898 1.08333 4.29167V2.66667C1.08333 2.37935 1.19747 2.1038 1.40063 1.90063C1.6038 1.69747 1.87935 1.58333 2.16667 1.58333H3.79167C4.07898 1.58333 4.35453 1.69747 4.5577 1.90063C4.76086 2.1038 4.875 2.37935 4.875 2.66667V4.29167Z" fill="#173E55"/>
<path d="M3.79167 7.54163H2.16667C1.59203 7.54163 1.04093 7.7699 0.634602 8.17623C0.228273 8.58256 0 9.13366 0 9.70829L0 11.3333C0 11.9079 0.228273 12.459 0.634602 12.8654C1.04093 13.2717 1.59203 13.5 2.16667 13.5H3.79167C4.3663 13.5 4.9174 13.2717 5.32373 12.8654C5.73006 12.459 5.95833 11.9079 5.95833 11.3333V9.70829C5.95833 9.13366 5.73006 8.58256 5.32373 8.17623C4.9174 7.7699 4.3663 7.54163 3.79167 7.54163ZM4.875 11.3333C4.875 11.6206 4.76086 11.8962 4.5577 12.0993C4.35453 12.3025 4.07898 12.4166 3.79167 12.4166H2.16667C1.87935 12.4166 1.6038 12.3025 1.40063 12.0993C1.19747 11.8962 1.08333 11.6206 1.08333 11.3333V9.70829C1.08333 9.42097 1.19747 9.14542 1.40063 8.94226C1.6038 8.7391 1.87935 8.62496 2.16667 8.62496H3.79167C4.07898 8.62496 4.35453 8.7391 4.5577 8.94226C4.76086 9.14542 4.875 9.42097 4.875 9.70829V11.3333Z" fill="#173E55"/>
<path d="M10.8337 7.54163H9.20866C8.63402 7.54163 8.08292 7.7699 7.67659 8.17623C7.27027 8.58256 7.04199 9.13366 7.04199 9.70829V11.3333C7.04199 11.9079 7.27027 12.459 7.67659 12.8654C8.08292 13.2717 8.63402 13.5 9.20866 13.5H10.8337C11.4083 13.5 11.9594 13.2717 12.3657 12.8654C12.7721 12.459 13.0003 11.9079 13.0003 11.3333V9.70829C13.0003 9.13366 12.7721 8.58256 12.3657 8.17623C11.9594 7.7699 11.4083 7.54163 10.8337 7.54163ZM11.917 11.3333C11.917 11.6206 11.8029 11.8962 11.5997 12.0993C11.3965 12.3025 11.121 12.4166 10.8337 12.4166H9.20866C8.92134 12.4166 8.64579 12.3025 8.44263 12.0993C8.23946 11.8962 8.12533 11.6206 8.12533 11.3333V9.70829C8.12533 9.42097 8.23946 9.14542 8.44263 8.94226C8.64579 8.7391 8.92134 8.62496 9.20866 8.62496H10.8337C11.121 8.62496 11.3965 8.7391 11.5997 8.94226C11.8029 9.14542 11.917 9.42097 11.917 9.70829V11.3333Z" fill="#173E55"/>
<path d="M7.58366 4.29163H9.20866V5.91663C9.20866 6.06029 9.26573 6.19806 9.36731 6.29964C9.46889 6.40122 9.60667 6.45829 9.75033 6.45829C9.89398 6.45829 10.0318 6.40122 10.1333 6.29964C10.2349 6.19806 10.292 6.06029 10.292 5.91663V4.29163H11.917C12.0607 4.29163 12.1984 4.23456 12.3 4.13298C12.4016 4.03139 12.4587 3.89362 12.4587 3.74996C12.4587 3.6063 12.4016 3.46853 12.3 3.36694C12.1984 3.26536 12.0607 3.20829 11.917 3.20829H10.292V1.58329C10.292 1.43963 10.2349 1.30186 10.1333 1.20028C10.0318 1.09869 9.89398 1.04163 9.75033 1.04163C9.60667 1.04163 9.46889 1.09869 9.36731 1.20028C9.26573 1.30186 9.20866 1.43963 9.20866 1.58329V3.20829H7.58366C7.44 3.20829 7.30222 3.26536 7.20064 3.36694C7.09906 3.46853 7.04199 3.6063 7.04199 3.74996C7.04199 3.89362 7.09906 4.03139 7.20064 4.13298C7.30222 4.23456 7.44 4.29163 7.58366 4.29163Z" fill="#173E55"/>
</g>
<defs>
<clipPath id="clip0_332_16284">
<rect width="13" height="13" fill="white" transform="translate(0 0.5)"/>
</clipPath>
</defs>
</svg>
