<svg width="13" height="14" viewBox="0 0 13 14" fill="none" xmlns="http://www.w3.org/2000/svg">
<g clip-path="url(#clip0_332_16263)">
<path d="M8.66634 9.16668C8.66634 9.31034 8.60927 9.44811 8.50769 9.5497C8.40611 9.65128 8.26833 9.70835 8.12467 9.70835H7.04134V10.7917C7.04134 10.9353 6.98427 11.0731 6.88269 11.1747C6.78111 11.2763 6.64333 11.3333 6.49967 11.3333C6.35602 11.3333 6.21824 11.2763 6.11666 11.1747C6.01508 11.0731 5.95801 10.9353 5.95801 10.7917V9.70835H4.87467C4.73102 9.70835 4.59324 9.65128 4.49166 9.5497C4.39008 9.44811 4.33301 9.31034 4.33301 9.16668C4.33301 9.02302 4.39008 8.88525 4.49166 8.78366C4.59324 8.68208 4.73102 8.62501 4.87467 8.62501H5.95801V7.54168C5.95801 7.39802 6.01508 7.26025 6.11666 7.15866C6.21824 7.05708 6.35602 7.00001 6.49967 7.00001C6.64333 7.00001 6.78111 7.05708 6.88269 7.15866C6.98427 7.26025 7.04134 7.39802 7.04134 7.54168V8.62501H8.12467C8.26833 8.62501 8.40611 8.68208 8.50769 8.78366C8.60927 8.88525 8.66634 9.02302 8.66634 9.16668ZM11.9163 6.17939V10.7917C11.9155 11.5097 11.6299 12.1981 11.1221 12.7058C10.6144 13.2135 9.92604 13.4992 9.20801 13.5H3.79134C3.07331 13.4992 2.38494 13.2135 1.87721 12.7058C1.36949 12.1981 1.08387 11.5097 1.08301 10.7917V3.20835C1.08387 2.49032 1.36949 1.80194 1.87721 1.29421C2.38494 0.78649 3.07331 0.500873 3.79134 0.500012H6.23697C6.73509 0.49873 7.22853 0.596206 7.68875 0.786803C8.14898 0.9774 8.56685 1.25734 8.91822 1.61043L10.8054 3.49868C11.1587 3.84981 11.4388 4.26755 11.6295 4.72771C11.8202 5.18786 11.9177 5.68128 11.9163 6.17939ZM8.1523 2.37635C7.98183 2.21122 7.79043 2.06918 7.58301 1.95385V4.29168C7.58301 4.43534 7.64008 4.57311 7.74166 4.6747C7.84324 4.77628 7.98102 4.83335 8.12467 4.83335H10.4625C10.3471 4.62599 10.2049 4.43476 10.0395 4.2646L8.1523 2.37635ZM10.833 6.17939C10.833 6.09001 10.8157 6.00443 10.8075 5.91668H8.12467C7.6937 5.91668 7.28037 5.74547 6.97563 5.44073C6.67088 5.13598 6.49967 4.72266 6.49967 4.29168V1.6088C6.41192 1.60068 6.3258 1.58335 6.23697 1.58335H3.79134C3.36036 1.58335 2.94704 1.75455 2.64229 2.0593C2.33755 2.36404 2.16634 2.77737 2.16634 3.20835V10.7917C2.16634 11.2227 2.33755 11.636 2.64229 11.9407C2.94704 12.2455 3.36036 12.4167 3.79134 12.4167H9.20801C9.63898 12.4167 10.0523 12.2455 10.3571 11.9407C10.6618 11.636 10.833 11.2227 10.833 10.7917V6.17939Z" fill="#173E55"/>
</g>
<defs>
<clipPath id="clip0_332_16263">
<rect width="13" height="13" fill="white" transform="translate(0 0.5)"/>
</clipPath>
</defs>
</svg>
