<svg width="19" height="19" viewBox="0 0 19 19" fill="none" xmlns="http://www.w3.org/2000/svg">
      <path
        d="M10.25 2.5625H5.75C3.98959 2.5625 2.5625 3.98959 2.5625 5.75V13.25C2.5625 15.0104 3.98959 16.4375 5.75 16.4375H13.25C15.0104 16.4375 16.4375 15.0104 16.4375 13.25V9.5"
        stroke="#F68833"
        strokeWidth="2"
        strokeLinecap="round"
      />
      <path
        fillRule="evenodd"
        clipRule="evenodd"
        d="M16.498 2.38615C15.882 1.82367 14.9408 1.88254 14.3955 2.51796C14.3955 2.51796 11.685 5.67589 10.7451 6.77201C9.80394 7.86752 10.4938 9.38093 10.4938 9.38093C10.4938 9.38093 12.0473 9.88835 12.9742 8.80821C13.9017 7.72803 16.6258 4.55477 16.6258 4.55477C17.1712 3.91935 17.1135 2.94862 16.498 2.38615Z"
        stroke="#F68833"
        strokeWidth="2"
        strokeLinecap="round"
        strokeLinejoin="round"
      />
      <path
        d="M13.5625 3.54333L15.6168 5.41212"
        stroke="#F68833"
        strokeWidth="2"
        strokeLinecap="round"
        strokeLinejoin="round"
      />
    </svg>