<svg width="20" height="20" viewBox="0 0 20 20" fill="none" xmlns="http://www.w3.org/2000/svg">
      <path
        d="M16.2495 15.725C16.4868 15.7266 16.7202 15.6648 16.9257 15.5461C17.1314 15.4274 17.3016 15.2559 17.4188 15.0494L17.5036 14.9H17.4929C17.5637 14.7336 17.6004 14.5541 17.6 14.3722C17.5996 14.134 17.5357 13.9002 17.415 13.6949C16.9931 12.9679 16.3498 10.8738 16.3498 8.125C16.3498 6.44088 15.6808 4.82573 14.4899 3.63487C13.2991 2.44402 11.6839 1.775 9.99978 1.775C8.31565 1.775 6.70051 2.44402 5.50965 3.63487C4.31879 4.82573 3.64978 6.44088 3.64978 8.125C3.64978 10.8748 3.00712 12.9683 2.58517 13.6951L2.67165 13.7453M16.2495 15.725C16.2494 15.725 16.2492 15.725 16.2491 15.725L16.2498 15.625M16.2495 15.725H16.2498V15.625M16.2495 15.725H3.74978H3.74964C3.51233 15.7247 3.27929 15.6618 3.07402 15.5427C2.86874 15.4236 2.69849 15.2525 2.58042 15.0467C2.46234 14.8408 2.40062 14.6075 2.40147 14.3702C2.40233 14.1328 2.46572 13.8999 2.58527 13.6949L2.67165 13.7453M16.2498 15.625C16.4694 15.6265 16.6855 15.5694 16.8757 15.4595C17.0317 15.3695 17.1656 15.2466 17.2685 15.1L2.67165 13.7453M16.2498 15.625H3.74978C3.53004 15.6247 3.31427 15.5665 3.1242 15.4562C2.93413 15.346 2.77649 15.1875 2.66716 14.9969C2.55783 14.8063 2.50068 14.5903 2.50147 14.3705C2.50226 14.1508 2.56096 13.9351 2.67165 13.7453M13.0124 18.0127C13.1484 17.8767 13.2248 17.6923 13.2248 17.5C13.2248 17.3077 13.1484 17.1233 13.0124 16.9873C12.8765 16.8514 12.6921 16.775 12.4998 16.775H7.49978C7.3075 16.775 7.12309 16.8514 6.98713 16.9873C6.85116 17.1233 6.77478 17.3077 6.77478 17.5C6.77478 17.6923 6.85116 17.8767 6.98713 18.0127C7.12309 18.1486 7.3075 18.225 7.49978 18.225H12.4998C12.6921 18.225 12.8765 18.1486 13.0124 18.0127ZM14.8998 8.125C14.8998 10.8251 15.4907 13.1506 16.0804 14.275H3.91912C4.50813 13.1513 5.09978 10.8258 5.09978 8.125C5.09978 6.82544 5.61603 5.57911 6.53496 4.66018C7.45388 3.74125 8.70022 3.225 9.99978 3.225C11.2993 3.225 12.5457 3.74125 13.4646 4.66018C14.3835 5.57911 14.8998 6.82544 14.8998 8.125Z"
        fill="#242424"
        stroke="#242424"
        strokeWidth="0.2"
      />
    </svg>