<svg width="140" height="174" viewBox="0 0 140 174" fill="none" xmlns="http://www.w3.org/2000/svg">
<g clip-path="url(#clip0_368_16024)">
<path fill-rule="evenodd" clip-rule="evenodd" d="M70 140C108.66 140 140 108.66 140 70C140 31.3401 108.66 0 70 0C52.6552 0 46.0621 20.8038 33.8333 31.2513C18.8053 44.0903 0 48.6849 0 70C0 108.66 31.3401 140 70 140Z" fill="#EEF0F6"/>
<g filter="url(#filter0_f_368_16024)">
<path d="M112 45.5H51.333C49.4 45.5 47.833 46.8399 47.833 48.4928V111.341C47.833 112.993 49.4 114.333 51.333 114.333H112C113.933 114.333 115.5 112.993 115.5 111.341V48.4928C115.5 46.8399 113.933 45.5 112 45.5Z" fill="white"/>
<path d="M112 45.5H51.333C49.4 45.5 47.833 46.8399 47.833 48.4928V111.341C47.833 112.993 49.4 114.333 51.333 114.333H112C113.933 114.333 115.5 112.993 115.5 111.341V48.4928C115.5 46.8399 113.933 45.5 112 45.5Z" fill="#E1E5EF"/>
</g>
<path d="M34.1464 50.4642C33.9759 47.1299 36.6335 44.333 39.9722 44.333H78.1652C81.2711 44.333 83.8324 46.7666 83.991 49.8684L86.0194 89.5351C86.1899 92.8694 83.5323 95.6663 80.1937 95.6663H42.0006C38.8947 95.6663 36.3335 93.2327 36.1749 90.1309L34.1464 50.4642Z" fill="#676C93"/>
<path d="M34.1433 58.628C33.9748 55.2949 36.6318 52.5 39.9692 52.5H104.698C108.035 52.5 110.692 55.2948 110.523 58.628L108.458 99.4613C108.301 102.564 105.74 105 102.632 105H42.0344C38.9272 105 36.3654 102.564 36.2085 99.4613L34.1433 58.628Z" fill="white"/>
<line x1="63.2066" y1="71.0275" x2="67.5272" y2="69.7931" stroke="#676C93" stroke-width="4" stroke-linecap="round"/>
<line x1="77.1395" y1="69.7934" x2="81.4601" y2="71.0278" stroke="#676C93" stroke-width="4" stroke-linecap="round"/>
<path d="M66.5 85.1669C70.5833 79.3337 75.25 79.3337 79.3333 85.1669" stroke="#676C93" stroke-width="4" stroke-linecap="round" stroke-linejoin="round"/>
</g>
<path d="M56.0527 162.469V171H54.916L50.6211 164.42V171H49.4902V162.469H50.6211L54.9336 169.066V162.469H56.0527ZM57.6055 167.9V167.766C57.6055 167.309 57.6719 166.885 57.8047 166.494C57.9375 166.1 58.1289 165.758 58.3789 165.469C58.6289 165.176 58.9316 164.949 59.2871 164.789C59.6426 164.625 60.041 164.543 60.4824 164.543C60.9277 164.543 61.3281 164.625 61.6836 164.789C62.043 164.949 62.3477 165.176 62.5977 165.469C62.8516 165.758 63.0449 166.1 63.1777 166.494C63.3105 166.885 63.377 167.309 63.377 167.766V167.9C63.377 168.357 63.3105 168.781 63.1777 169.172C63.0449 169.562 62.8516 169.904 62.5977 170.197C62.3477 170.486 62.0449 170.713 61.6895 170.877C61.3379 171.037 60.9395 171.117 60.4941 171.117C60.0488 171.117 59.6484 171.037 59.293 170.877C58.9375 170.713 58.6328 170.486 58.3789 170.197C58.1289 169.904 57.9375 169.562 57.8047 169.172C57.6719 168.781 57.6055 168.357 57.6055 167.9ZM58.6895 167.766V167.9C58.6895 168.217 58.7266 168.516 58.8008 168.797C58.875 169.074 58.9863 169.32 59.1348 169.535C59.2871 169.75 59.4766 169.92 59.7031 170.045C59.9297 170.166 60.1934 170.227 60.4941 170.227C60.791 170.227 61.0508 170.166 61.2734 170.045C61.5 169.92 61.6875 169.75 61.8359 169.535C61.9844 169.32 62.0957 169.074 62.1699 168.797C62.248 168.516 62.2871 168.217 62.2871 167.9V167.766C62.2871 167.453 62.248 167.158 62.1699 166.881C62.0957 166.6 61.9824 166.352 61.8301 166.137C61.6816 165.918 61.4941 165.746 61.2676 165.621C61.0449 165.496 60.7832 165.434 60.4824 165.434C60.1855 165.434 59.9238 165.496 59.6973 165.621C59.4746 165.746 59.2871 165.918 59.1348 166.137C58.9863 166.352 58.875 166.6 58.8008 166.881C58.7266 167.158 58.6895 167.453 58.6895 167.766ZM71.709 169.77V162H72.7988V171H71.8027L71.709 169.77ZM67.4434 167.9V167.777C67.4434 167.293 67.502 166.854 67.6191 166.459C67.7402 166.061 67.9102 165.719 68.1289 165.434C68.3516 165.148 68.6152 164.93 68.9199 164.777C69.2285 164.621 69.5723 164.543 69.9512 164.543C70.3496 164.543 70.6973 164.613 70.9941 164.754C71.2949 164.891 71.5488 165.092 71.7559 165.357C71.9668 165.619 72.1328 165.936 72.2539 166.307C72.375 166.678 72.459 167.098 72.5059 167.566V168.105C72.4629 168.57 72.3789 168.988 72.2539 169.359C72.1328 169.73 71.9668 170.047 71.7559 170.309C71.5488 170.57 71.2949 170.771 70.9941 170.912C70.6934 171.049 70.3418 171.117 69.9395 171.117C69.5684 171.117 69.2285 171.037 68.9199 170.877C68.6152 170.717 68.3516 170.492 68.1289 170.203C67.9102 169.914 67.7402 169.574 67.6191 169.184C67.502 168.789 67.4434 168.361 67.4434 167.9ZM68.5332 167.777V167.9C68.5332 168.217 68.5645 168.514 68.627 168.791C68.6934 169.068 68.7949 169.312 68.9316 169.523C69.0684 169.734 69.2422 169.9 69.4531 170.021C69.6641 170.139 69.916 170.197 70.209 170.197C70.5684 170.197 70.8633 170.121 71.0938 169.969C71.3281 169.816 71.5156 169.615 71.6562 169.365C71.7969 169.115 71.9062 168.844 71.9844 168.551V167.139C71.9375 166.924 71.8691 166.717 71.7793 166.518C71.6934 166.314 71.5801 166.135 71.4395 165.979C71.3027 165.818 71.1328 165.691 70.9297 165.598C70.7305 165.504 70.4941 165.457 70.2207 165.457C69.9238 165.457 69.668 165.52 69.4531 165.645C69.2422 165.766 69.0684 165.934 68.9316 166.148C68.7949 166.359 68.6934 166.605 68.627 166.887C68.5645 167.164 68.5332 167.461 68.5332 167.777ZM78.2246 169.916V166.652C78.2246 166.402 78.1738 166.186 78.0723 166.002C77.9746 165.814 77.8262 165.67 77.627 165.568C77.4277 165.467 77.1816 165.416 76.8887 165.416C76.6152 165.416 76.375 165.463 76.168 165.557C75.9648 165.65 75.8047 165.773 75.6875 165.926C75.5742 166.078 75.5176 166.242 75.5176 166.418H74.4336C74.4336 166.191 74.4922 165.967 74.6094 165.744C74.7266 165.521 74.8945 165.32 75.1133 165.141C75.3359 164.957 75.6016 164.812 75.9102 164.707C76.2227 164.598 76.5703 164.543 76.9531 164.543C77.4141 164.543 77.8203 164.621 78.1719 164.777C78.5273 164.934 78.8047 165.17 79.0039 165.486C79.207 165.799 79.3086 166.191 79.3086 166.664V169.617C79.3086 169.828 79.3262 170.053 79.3613 170.291C79.4004 170.529 79.457 170.734 79.5312 170.906V171H78.4004C78.3457 170.875 78.3027 170.709 78.2715 170.502C78.2402 170.291 78.2246 170.096 78.2246 169.916ZM78.4121 167.156L78.4238 167.918H77.3281C77.0195 167.918 76.7441 167.943 76.502 167.994C76.2598 168.041 76.0566 168.113 75.8926 168.211C75.7285 168.309 75.6035 168.432 75.5176 168.58C75.4316 168.725 75.3887 168.895 75.3887 169.09C75.3887 169.289 75.4336 169.471 75.5234 169.635C75.6133 169.799 75.748 169.93 75.9277 170.027C76.1113 170.121 76.3359 170.168 76.6016 170.168C76.9336 170.168 77.2266 170.098 77.4805 169.957C77.7344 169.816 77.9355 169.645 78.084 169.441C78.2363 169.238 78.3184 169.041 78.3301 168.85L78.793 169.371C78.7656 169.535 78.6914 169.717 78.5703 169.916C78.4492 170.115 78.2871 170.307 78.084 170.49C77.8848 170.67 77.6465 170.82 77.3691 170.941C77.0957 171.059 76.7871 171.117 76.4434 171.117C76.0137 171.117 75.6367 171.033 75.3125 170.865C74.9922 170.697 74.7422 170.473 74.5625 170.191C74.3867 169.906 74.2988 169.588 74.2988 169.236C74.2988 168.896 74.3652 168.598 74.498 168.34C74.6309 168.078 74.8223 167.861 75.0723 167.689C75.3223 167.514 75.623 167.381 75.9746 167.291C76.3262 167.201 76.7188 167.156 77.1523 167.156H78.4121ZM83.668 164.66V165.492H80.2402V164.66H83.668ZM81.4004 163.119H82.4844V169.43C82.4844 169.645 82.5176 169.807 82.584 169.916C82.6504 170.025 82.7363 170.098 82.8418 170.133C82.9473 170.168 83.0605 170.186 83.1816 170.186C83.2715 170.186 83.3652 170.178 83.4629 170.162C83.5645 170.143 83.6406 170.127 83.6914 170.115L83.6973 171C83.6113 171.027 83.498 171.053 83.3574 171.076C83.2207 171.104 83.0547 171.117 82.8594 171.117C82.5938 171.117 82.3496 171.064 82.127 170.959C81.9043 170.854 81.7266 170.678 81.5938 170.432C81.4648 170.182 81.4004 169.846 81.4004 169.424V163.119ZM88.6777 169.916V166.652C88.6777 166.402 88.627 166.186 88.5254 166.002C88.4277 165.814 88.2793 165.67 88.0801 165.568C87.8809 165.467 87.6348 165.416 87.3418 165.416C87.0684 165.416 86.8281 165.463 86.6211 165.557C86.418 165.65 86.2578 165.773 86.1406 165.926C86.0273 166.078 85.9707 166.242 85.9707 166.418H84.8867C84.8867 166.191 84.9453 165.967 85.0625 165.744C85.1797 165.521 85.3477 165.32 85.5664 165.141C85.7891 164.957 86.0547 164.812 86.3633 164.707C86.6758 164.598 87.0234 164.543 87.4062 164.543C87.8672 164.543 88.2734 164.621 88.625 164.777C88.9805 164.934 89.2578 165.17 89.457 165.486C89.6602 165.799 89.7617 166.191 89.7617 166.664V169.617C89.7617 169.828 89.7793 170.053 89.8145 170.291C89.8535 170.529 89.9102 170.734 89.9844 170.906V171H88.8535C88.7988 170.875 88.7559 170.709 88.7246 170.502C88.6934 170.291 88.6777 170.096 88.6777 169.916ZM88.8652 167.156L88.877 167.918H87.7812C87.4727 167.918 87.1973 167.943 86.9551 167.994C86.7129 168.041 86.5098 168.113 86.3457 168.211C86.1816 168.309 86.0566 168.432 85.9707 168.58C85.8848 168.725 85.8418 168.895 85.8418 169.09C85.8418 169.289 85.8867 169.471 85.9766 169.635C86.0664 169.799 86.2012 169.93 86.3809 170.027C86.5645 170.121 86.7891 170.168 87.0547 170.168C87.3867 170.168 87.6797 170.098 87.9336 169.957C88.1875 169.816 88.3887 169.645 88.5371 169.441C88.6895 169.238 88.7715 169.041 88.7832 168.85L89.2461 169.371C89.2188 169.535 89.1445 169.717 89.0234 169.916C88.9023 170.115 88.7402 170.307 88.5371 170.49C88.3379 170.67 88.0996 170.82 87.8223 170.941C87.5488 171.059 87.2402 171.117 86.8965 171.117C86.4668 171.117 86.0898 171.033 85.7656 170.865C85.4453 170.697 85.1953 170.473 85.0156 170.191C84.8398 169.906 84.752 169.588 84.752 169.236C84.752 168.896 84.8184 168.598 84.9512 168.34C85.084 168.078 85.2754 167.861 85.5254 167.689C85.7754 167.514 86.0762 167.381 86.4277 167.291C86.7793 167.201 87.1719 167.156 87.6055 167.156H88.8652Z" fill="#7D8D9E"/>
<defs>
<filter id="filter0_f_368_16024" x="36.833" y="34.5" width="89.667" height="90.833" filterUnits="userSpaceOnUse" color-interpolation-filters="sRGB">
<feFlood flood-opacity="0" result="BackgroundImageFix"/>
<feBlend mode="normal" in="SourceGraphic" in2="BackgroundImageFix" result="shape"/>
<feGaussianBlur stdDeviation="5.5" result="effect1_foregroundBlur_368_16024"/>
</filter>
<clipPath id="clip0_368_16024">
<rect width="140" height="140" fill="white"/>
</clipPath>
</defs>
</svg>
