<svg width="13" height="14" viewBox="0 0 13 14" fill="none" xmlns="http://www.w3.org/2000/svg">
<g clip-path="url(#clip0_332_16267)">
<path d="M2.16709 3.75005C1.95354 3.75061 1.742 3.70882 1.5447 3.62709C1.34741 3.54537 1.16828 3.42533 1.01767 3.27393L0.181341 2.52968C0.0740279 2.434 0.00911748 2.29961 0.000889319 2.15607C-0.00733884 2.01254 0.0417893 1.87161 0.137466 1.7643C0.233143 1.65699 0.367531 1.59208 0.511067 1.58385C0.654602 1.57562 0.795528 1.62475 0.902841 1.72043L1.76138 2.48634C1.81053 2.54154 1.87046 2.58609 1.93747 2.61726C2.00448 2.64843 2.07716 2.66555 2.15103 2.66758C2.22491 2.66961 2.29842 2.6565 2.36704 2.62906C2.43567 2.60162 2.49794 2.56042 2.55005 2.50801L4.50222 0.64955C4.60719 0.556096 4.74437 0.507102 4.8848 0.512915C5.02522 0.518728 5.15789 0.578894 5.25478 0.680704C5.35166 0.782514 5.40519 0.917997 5.40404 1.05854C5.40289 1.19908 5.34717 1.33367 5.24863 1.43388L3.30459 3.28313C3.15497 3.43188 2.97749 3.54969 2.78231 3.6298C2.58713 3.70992 2.37807 3.75078 2.16709 3.75005ZM13.0004 2.66672C13.0004 2.52306 12.9434 2.38528 12.8418 2.2837C12.7402 2.18212 12.6024 2.12505 12.4588 2.12505H7.04209C6.89843 2.12505 6.76066 2.18212 6.65907 2.2837C6.55749 2.38528 6.50042 2.52306 6.50042 2.66672C6.50042 2.81038 6.55749 2.94815 6.65907 3.04973C6.76066 3.15132 6.89843 3.20838 7.04209 3.20838H12.4588C12.6024 3.20838 12.7402 3.15132 12.8418 3.04973C12.9434 2.94815 13.0004 2.81038 13.0004 2.66672ZM3.30459 7.61647L5.24863 5.76722C5.30289 5.71891 5.34688 5.66018 5.37798 5.59453C5.40908 5.52888 5.42665 5.45764 5.42966 5.38505C5.43266 5.31247 5.42104 5.24002 5.39547 5.17202C5.3699 5.10402 5.33092 5.04186 5.28084 4.98923C5.23076 4.93661 5.1706 4.8946 5.10395 4.86569C5.0373 4.83679 4.96552 4.82159 4.89287 4.821C4.82023 4.82041 4.74821 4.83443 4.6811 4.86224C4.61398 4.89005 4.55315 4.93108 4.50222 4.98288L2.55222 6.84134C2.4491 6.93994 2.31193 6.99497 2.16926 6.99497C2.02659 6.99497 1.88941 6.93994 1.7863 6.84134L0.925049 5.9828C0.82289 5.88413 0.686064 5.82953 0.544041 5.83077C0.402017 5.832 0.26616 5.88897 0.165731 5.9894C0.0653017 6.08983 0.00833521 6.22568 0.00710107 6.36771C0.00586692 6.50973 0.0604639 6.64656 0.159133 6.74872L1.01767 7.60726C1.32083 7.91048 1.73155 8.08161 2.16032 8.08333C2.58909 8.08505 3.00117 7.91724 3.30676 7.61647H3.30459ZM13.0004 7.00005C13.0004 6.85639 12.9434 6.71862 12.8418 6.61703C12.7402 6.51545 12.6024 6.45838 12.4588 6.45838H7.04209C6.89843 6.45838 6.76066 6.51545 6.65907 6.61703C6.55749 6.71862 6.50042 6.85639 6.50042 7.00005C6.50042 7.14371 6.55749 7.28148 6.65907 7.38307C6.76066 7.48465 6.89843 7.54172 7.04209 7.54172H12.4588C12.6024 7.54172 12.7402 7.48465 12.8418 7.38307C12.9434 7.28148 13.0004 7.14371 13.0004 7.00005ZM3.30459 11.9498L5.24647 10.1006C5.30073 10.0522 5.34471 9.99352 5.37581 9.92786C5.40691 9.86221 5.42449 9.79097 5.42749 9.71839C5.4305 9.6458 5.41887 9.57335 5.3933 9.50535C5.36774 9.43736 5.32875 9.37519 5.27867 9.32257C5.22859 9.26994 5.16844 9.22793 5.10179 9.19903C5.03513 9.17013 4.96335 9.15493 4.89071 9.15433C4.81806 9.15374 4.74604 9.16777 4.67893 9.19558C4.61181 9.22339 4.55098 9.26441 4.50005 9.31622L2.55005 11.1747C2.49794 11.2271 2.43567 11.2683 2.36704 11.2957C2.29842 11.3232 2.22491 11.3363 2.15103 11.3342C2.07716 11.3322 2.00448 11.3151 1.93747 11.2839C1.87046 11.2528 1.81053 11.2082 1.76138 11.153L0.902841 10.3871C0.795528 10.2914 0.654602 10.2423 0.511067 10.2505C0.367531 10.2587 0.233143 10.3237 0.137466 10.431C0.0417893 10.5383 -0.00733884 10.6792 0.000889319 10.8227C0.00911748 10.9663 0.0740279 11.1007 0.181341 11.1963L1.01767 11.9406C1.32083 12.2438 1.73155 12.4149 2.16032 12.4167C2.58909 12.4184 3.00117 12.2506 3.30676 11.9498H3.30459ZM13.0004 11.3334C13.0004 11.1897 12.9434 11.0519 12.8418 10.9504C12.7402 10.8488 12.6024 10.7917 12.4588 10.7917H7.04209C6.89843 10.7917 6.76066 10.8488 6.65907 10.9504C6.55749 11.0519 6.50042 11.1897 6.50042 11.3334C6.50042 11.477 6.55749 11.6148 6.65907 11.7164C6.76066 11.818 6.89843 11.8751 7.04209 11.8751H12.4588C12.6024 11.8751 12.7402 11.818 12.8418 11.7164C12.9434 11.6148 13.0004 11.477 13.0004 11.3334Z" fill="#173E55"/>
</g>
<defs>
<clipPath id="clip0_332_16267">
<rect width="13" height="13" fill="white" transform="translate(0 0.5)"/>
</clipPath>
</defs>
</svg>
