<svg width="13" height="14" viewBox="0 0 13 14" fill="none" xmlns="http://www.w3.org/2000/svg">
<g clip-path="url(#clip0_332_16259)">
<path d="M0.541667 3.07293H2.02367C2.13993 3.50071 2.39372 3.87834 2.74589 4.14756C3.09805 4.41679 3.52902 4.56266 3.97231 4.56266C4.4156 4.56266 4.84657 4.41679 5.19874 4.14756C5.55091 3.87834 5.8047 3.50071 5.92096 3.07293H12.4583C12.602 3.07293 12.7398 3.01587 12.8414 2.91428C12.9429 2.8127 13 2.67493 13 2.53127C13 2.38761 12.9429 2.24983 12.8414 2.14825C12.7398 2.04667 12.602 1.9896 12.4583 1.9896H5.92096C5.8047 1.56183 5.55091 1.1842 5.19874 0.914972C4.84657 0.645744 4.4156 0.499878 3.97231 0.499878C3.52902 0.499878 3.09805 0.645744 2.74589 0.914972C2.39372 1.1842 2.13993 1.56183 2.02367 1.9896H0.541667C0.398008 1.9896 0.260233 2.04667 0.158651 2.14825C0.0570683 2.24983 0 2.38761 0 2.53127C0 2.67493 0.0570683 2.8127 0.158651 2.91428C0.260233 3.01587 0.398008 3.07293 0.541667 3.07293ZM3.97204 1.58335C4.15952 1.58335 4.34279 1.63895 4.49868 1.7431C4.65456 1.84726 4.77606 1.99531 4.8478 2.16852C4.91955 2.34173 4.93832 2.53232 4.90174 2.7162C4.86517 2.90008 4.77489 3.06898 4.64232 3.20155C4.50975 3.33411 4.34085 3.4244 4.15697 3.46097C3.97309 3.49755 3.7825 3.47877 3.60929 3.40703C3.43608 3.33528 3.28804 3.21379 3.18388 3.0579C3.07972 2.90202 3.02413 2.71875 3.02413 2.53127C3.02441 2.27995 3.12437 2.03901 3.30208 1.86131C3.47979 1.6836 3.72073 1.58364 3.97204 1.58335Z" fill="#173E55"/>
<path d="M12.4583 6.45839H10.9763C10.8603 6.03052 10.6066 5.65275 10.2544 5.38341C9.9023 5.11407 9.47129 4.96814 9.02796 4.96814C8.58462 4.96814 8.15362 5.11407 7.80148 5.38341C7.44934 5.65275 7.19565 6.03052 7.07958 6.45839H0.541667C0.398008 6.45839 0.260233 6.51546 0.158651 6.61704C0.0570683 6.71862 0 6.8564 0 7.00006C0 7.14372 0.0570683 7.28149 0.158651 7.38307C0.260233 7.48466 0.398008 7.54172 0.541667 7.54172H7.07958C7.19565 7.9696 7.44934 8.34736 7.80148 8.6167C8.15362 8.88604 8.58462 9.03198 9.02796 9.03198C9.47129 9.03198 9.9023 8.88604 10.2544 8.6167C10.6066 8.34736 10.8603 7.9696 10.9763 7.54172H12.4583C12.602 7.54172 12.7398 7.48466 12.8414 7.38307C12.9429 7.28149 13 7.14372 13 7.00006C13 6.8564 12.9429 6.71862 12.8414 6.61704C12.7398 6.51546 12.602 6.45839 12.4583 6.45839ZM9.02796 7.94797C8.84048 7.94797 8.65721 7.89238 8.50132 7.78822C8.34544 7.68406 8.22394 7.53602 8.1522 7.36281C8.08045 7.1896 8.06168 6.99901 8.09826 6.81513C8.13483 6.63125 8.22511 6.46235 8.35768 6.32978C8.49025 6.19721 8.65915 6.10693 8.84303 6.07036C9.02691 6.03378 9.2175 6.05255 9.39071 6.1243C9.56392 6.19604 9.71196 6.31754 9.81612 6.47342C9.92028 6.62931 9.97587 6.81258 9.97587 7.00006C9.97559 7.25137 9.87563 7.49231 9.69792 7.67002C9.52021 7.84773 9.27927 7.94769 9.02796 7.94797Z" fill="#173E55"/>
<path d="M12.4583 10.9271H5.92096C5.8047 10.4993 5.55091 10.1217 5.19874 9.85247C4.84657 9.58324 4.4156 9.43738 3.97231 9.43738C3.52902 9.43738 3.09805 9.58324 2.74589 9.85247C2.39372 10.1217 2.13993 10.4993 2.02367 10.9271H0.541667C0.398008 10.9271 0.260233 10.9842 0.158651 11.0858C0.0570683 11.1873 0 11.3251 0 11.4688C0 11.6124 0.0570683 11.7502 0.158651 11.8518C0.260233 11.9534 0.398008 12.0104 0.541667 12.0104H2.02367C2.13993 12.4382 2.39372 12.8158 2.74589 13.0851C3.09805 13.3543 3.52902 13.5002 3.97231 13.5002C4.4156 13.5002 4.84657 13.3543 5.19874 13.0851C5.55091 12.8158 5.8047 12.4382 5.92096 12.0104H12.4583C12.602 12.0104 12.7398 11.9534 12.8414 11.8518C12.9429 11.7502 13 11.6124 13 11.4688C13 11.3251 12.9429 11.1873 12.8414 11.0858C12.7398 10.9842 12.602 10.9271 12.4583 10.9271ZM3.97204 12.4167C3.78456 12.4167 3.60129 12.3611 3.44541 12.2569C3.28952 12.1528 3.16803 12.0047 3.09628 11.8315C3.02454 11.6583 3.00576 11.4677 3.04234 11.2838C3.07891 11.1 3.16919 10.9311 3.30176 10.7985C3.43433 10.6659 3.60323 10.5756 3.78711 10.5391C3.97099 10.5025 4.16158 10.5213 4.33479 10.593C4.508 10.6648 4.65605 10.7862 4.76021 10.9421C4.86436 11.098 4.91996 11.2813 4.91996 11.4688C4.91953 11.72 4.81952 11.9609 4.64185 12.1386C4.46417 12.3162 4.22331 12.4163 3.97204 12.4167Z" fill="#173E55"/>
</g>
<defs>
<clipPath id="clip0_332_16259">
<rect width="13" height="13" fill="white" transform="translate(0 0.5)"/>
</clipPath>
</defs>
</svg>
